<svg version="1.0" xmlns="http://www.w3.org/2000/svg" width="682.667" height="682.667" viewBox="0 0 512 512">
    <path d="M326.3 22.5c-3.3 1.4-6.3 5.9-6.3 9.5 0 3.7 3 8.1 6.5 9.6 2.8 1.2 14.1 1.4 65.2 1.4h61.8L333.8 162.7c-95.6 95.8-119.7 120.4-120.3 123-1.5 7.1 5.7 14.3 12.8 12.8 2.6-.6 27.2-24.7 123-120.3L469 58.5v61.8c0 67.7-.1 67.1 5.9 70.1 3.8 2 6.4 2 10.2 0 6-3.1 5.9-1.1 5.9-84.4 0-83.5.2-80.3-6-83.5-2.5-1.3-12.9-1.5-79.2-1.5-62.8.1-76.9.3-79.5 1.5z"/>
    <path d="M64.5 65C53.8 67.2 42 73.9 34.9 81.8c-6.3 7-11.7 19.1-12.9 28.7-.7 5.4-1 61.9-.8 172l.3 164 2.2 6.5c6.2 17.8 19 30.2 36.8 35.7 5.7 1.7 13.8 1.8 175 1.8h169l6.4-2.3c16.3-5.9 27.8-17 34.1-33.2l2.5-6.5.3-102.5c.3-93.7.2-102.8-1.3-105.6-3.1-5.8-11.2-7.3-16.2-3l-2.8 2.4-.5 102.4-.5 102.3-2.6 5.6c-3.3 6.9-8.9 12.7-15.5 16l-4.9 2.4h-338l-5-2.7c-6-3.2-11.4-8.7-14.6-14.8l-2.4-4.5-.3-167.7C43 111.3 43 111.1 45 105.6c2.7-7 9.3-13.9 16.8-17.4l5.7-2.7 102.3-.5 102.4-.5 2.4-2.8c4.1-4.8 2.9-12.8-2.6-16-2.6-1.6-11.2-1.7-103.2-1.6-55.1.1-102.1.5-104.3.9z"/>
</svg>